<svg width="16" height="16" viewBox="0 0 16 16" fill="none" xmlns="http://www.w3.org/2000/svg">
    <path
        d="M6.93336 6.96685H6.90003V6.90019H6.93336H8.00003C8.01845 6.90019 8.03336 6.9151 8.03336 6.93352V10.6669V11.1669H8.53336H9.0667H9.10003V11.2335H9.0667H8.00003H6.93336H6.90003V11.1669H6.93336H7.4667H7.9667V10.6669V7.46685V6.96685H7.4667H6.93336ZM1.43555 7.9999C1.43555 4.37451 4.37451 1.43555 7.9999 1.43555C11.6253 1.43555 14.5642 4.37451 14.5642 7.9999C14.5642 11.6253 11.6253 14.5643 7.9999 14.5643C4.37452 14.5643 1.43555 11.6253 1.43555 7.9999ZM7.9999 1.44888C4.38187 1.44888 1.44887 4.38188 1.44887 7.9999C1.44887 11.6179 4.38187 14.551 7.9999 14.551C11.6179 14.551 14.5509 11.6179 14.5509 7.9999C14.5509 4.38188 11.6179 1.44888 7.9999 1.44888ZM8.29991 4.80018C8.29991 4.96587 8.1656 5.10018 7.99991 5.10018C7.83423 5.10018 7.69991 4.96587 7.69991 4.80018C7.69991 4.6345 7.83423 4.50018 7.99991 4.50018C8.1656 4.50018 8.29991 4.6345 8.29991 4.80018Z"
        fill="#FAFAFA" stroke="#FAFAFA" />
</svg>