<svg width="34" height="20" viewBox="0 0 34 20" fill="none" xmlns="http://www.w3.org/2000/svg">
<rect width="34" height="20" fill="#DCF808"/>
<path d="M5.188 14C5.1 14 5.028 13.972 4.972 13.916C4.916 13.86 4.888 13.788 4.888 13.7V5.9C4.888 5.812 4.916 5.74 4.972 5.684C5.028 5.628 5.1 5.6 5.188 5.6H6.28C6.4 5.6 6.488 5.628 6.544 5.684C6.6 5.74 6.636 5.784 6.652 5.816L9.856 10.82V5.9C9.856 5.812 9.884 5.74 9.94 5.684C9.996 5.628 10.064 5.6 10.144 5.6H11.368C11.456 5.6 11.528 5.628 11.584 5.684C11.64 5.74 11.668 5.812 11.668 5.9V13.7C11.668 13.78 11.64 13.852 11.584 13.916C11.528 13.972 11.456 14 11.368 14H10.264C10.144 14 10.056 13.972 10 13.916C9.952 13.852 9.916 13.808 9.892 13.784L6.7 8.936V13.7C6.7 13.788 6.672 13.86 6.616 13.916C6.56 13.972 6.488 14 6.4 14H5.188ZM13.7427 14C13.6547 14 13.5827 13.972 13.5267 13.916C13.4707 13.86 13.4427 13.788 13.4427 13.7V5.9C13.4427 5.812 13.4707 5.74 13.5267 5.684C13.5827 5.628 13.6547 5.6 13.7427 5.6H19.1787C19.2667 5.6 19.3387 5.628 19.3947 5.684C19.4507 5.74 19.4787 5.812 19.4787 5.9V6.86C19.4787 6.94 19.4507 7.008 19.3947 7.064C19.3387 7.12 19.2667 7.148 19.1787 7.148H15.2907V9.032H18.9147C19.0027 9.032 19.0747 9.06 19.1307 9.116C19.1867 9.172 19.2147 9.244 19.2147 9.332V10.22C19.2147 10.3 19.1867 10.368 19.1307 10.424C19.0747 10.48 19.0027 10.508 18.9147 10.508H15.2907V12.452H19.2747C19.3627 12.452 19.4347 12.48 19.4907 12.536C19.5467 12.592 19.5747 12.664 19.5747 12.752V13.7C19.5747 13.788 19.5467 13.86 19.4907 13.916C19.4347 13.972 19.3627 14 19.2747 14H13.7427ZM22.3693 14C22.2413 14 22.1373 13.964 22.0573 13.892C21.9853 13.82 21.9413 13.732 21.9253 13.628L20.5573 5.936C20.5493 5.92 20.5453 5.904 20.5453 5.888C20.5453 5.872 20.5453 5.86 20.5453 5.852C20.5453 5.788 20.5693 5.732 20.6173 5.684C20.6653 5.628 20.7253 5.6 20.7973 5.6H22.0573C22.2653 5.6 22.3813 5.684 22.4053 5.852L23.3053 10.928L24.2773 7.772C24.3013 7.708 24.3413 7.64 24.3973 7.568C24.4533 7.496 24.5453 7.46 24.6733 7.46H25.4293C25.5573 7.46 25.6493 7.496 25.7053 7.568C25.7613 7.64 25.7973 7.708 25.8133 7.772L26.7973 10.916L27.6853 5.852C27.7093 5.684 27.8293 5.6 28.0453 5.6H29.3053C29.3773 5.6 29.4373 5.628 29.4853 5.684C29.5333 5.732 29.5573 5.788 29.5573 5.852C29.5573 5.86 29.5573 5.872 29.5573 5.888C29.5573 5.904 29.5533 5.92 29.5453 5.936L28.1773 13.628C28.1613 13.732 28.1133 13.82 28.0333 13.892C27.9613 13.964 27.8613 14 27.7333 14H26.7613C26.6333 14 26.5333 13.968 26.4613 13.904C26.3973 13.832 26.3533 13.76 26.3293 13.688L25.0453 9.968L23.7733 13.688C23.7493 13.76 23.7013 13.832 23.6293 13.904C23.5653 13.968 23.4653 14 23.3293 14H22.3693Z" fill="#0D0D15"/>
</svg>
