<svg xmlns="http://www.w3.org/2000/svg" xmlns:xlink="http://www.w3.org/1999/xlink" version="1.1" id="Layer_1" x="0px" y="0px" viewBox="0 0 20.6 20.1" style="enable-background:new 0 0 24.6 24.1;" xml:space="preserve"><script xmlns="" id="argent-x-extension" data-extension-id="dlcobpjiigpikoobohmabehhmhfoodbb"/>
<style type="text/css">
	.st0{fill:#000000;}
    .bg{fill:#FFFFFF;}
</style>
<rect class="bg" width="24.6" height="30.1"/>
<path class="st0" d="M13.1,17.7V8.3c0-2.4-1.9-4.3-4.3-4.3v15.1c0,2.2,1.7,4,3.9,4c0.1,0,0.1,0,0.2,0c1,0.1,2.1-0.2,2.9-0.9  C13.3,22,13.1,20.5,13.1,17.7L13.1,17.7z"/>
<path class="st0" d="M3.9,0C1.8,0,0,1.8,0,4h17.6c2.2,0,3.9-1.8,3.9-4C21.6,0,3.9,0,3.9,0z"/>
</svg>