<svg width="51" height="12" viewBox="0 0 51 12" fill="none" xmlns="http://www.w3.org/2000/svg">
<path d="M0.0780001 11V0.569999H3.872C4.572 0.569999 5.188 0.700666 5.72 0.962C6.26133 1.214 6.68133 1.58733 6.98 2.082C7.27867 2.56733 7.428 3.15067 7.428 3.832C7.428 4.504 7.274 5.08267 6.966 5.568C6.66733 6.05333 6.252 6.42667 5.72 6.688C5.188 6.94933 4.572 7.08 3.872 7.08H1.73V11H0.0780001ZM1.73 5.61H3.914C4.28733 5.61 4.614 5.53533 4.894 5.386C5.174 5.23667 5.39333 5.03133 5.552 4.77C5.71067 4.49933 5.79 4.182 5.79 3.818C5.79 3.454 5.71067 3.14133 5.552 2.88C5.39333 2.60933 5.174 2.404 4.894 2.264C4.614 2.11467 4.28733 2.04 3.914 2.04H1.73V5.61ZM12.3553 11.168C11.6273 11.168 10.96 10.9953 10.3533 10.65C9.75601 10.3047 9.28001 9.83333 8.92534 9.236C8.57068 8.63867 8.39334 7.962 8.39334 7.206C8.39334 6.44067 8.57068 5.764 8.92534 5.176C9.28001 4.57867 9.75601 4.112 10.3533 3.776C10.9507 3.43067 11.618 3.258 12.3553 3.258C13.102 3.258 13.7693 3.43067 14.3573 3.776C14.9547 4.112 15.426 4.57867 15.7713 5.176C16.126 5.764 16.3033 6.44067 16.3033 7.206C16.3033 7.97133 16.126 8.65267 15.7713 9.25C15.4167 9.84733 14.9407 10.3187 14.3433 10.664C13.746 11 13.0833 11.168 12.3553 11.168ZM12.3553 9.698C12.8033 9.698 13.2 9.59067 13.5453 9.376C13.8907 9.16133 14.1613 8.86733 14.3573 8.494C14.5627 8.11133 14.6653 7.682 14.6653 7.206C14.6653 6.73 14.5627 6.30533 14.3573 5.932C14.1613 5.55867 13.8907 5.26467 13.5453 5.05C13.2 4.83533 12.8033 4.728 12.3553 4.728C11.9167 4.728 11.52 4.83533 11.1653 5.05C10.82 5.26467 10.5447 5.55867 10.3393 5.932C10.1433 6.30533 10.0453 6.73 10.0453 7.206C10.0453 7.682 10.1433 8.11133 10.3393 8.494C10.5447 8.86733 10.82 9.16133 11.1653 9.376C11.52 9.59067 11.9167 9.698 12.3553 9.698ZM17.8478 11V3.426H19.3598V4.952L19.2198 4.728C19.3878 4.23333 19.6585 3.87867 20.0318 3.664C20.4052 3.44 20.8532 3.328 21.3758 3.328H21.8378V4.77H21.1798C20.6572 4.77 20.2325 4.93333 19.9058 5.26C19.5885 5.57733 19.4298 6.03467 19.4298 6.632V11H17.8478ZM26.3328 11.084C25.5395 11.084 24.9235 10.86 24.4848 10.412C24.0461 9.964 23.8268 9.334 23.8268 8.522V4.854H22.4968V3.426H22.7068C23.0615 3.426 23.3368 3.32333 23.5328 3.118C23.7288 2.91267 23.8268 2.63267 23.8268 2.278V1.69H25.4088V3.426H27.1308V4.854H25.4088V8.452C25.4088 8.71333 25.4508 8.93733 25.5348 9.124C25.6188 9.30133 25.7541 9.44133 25.9408 9.544C26.1275 9.63733 26.3701 9.684 26.6688 9.684C26.7435 9.684 26.8275 9.67933 26.9208 9.67C27.0141 9.66067 27.1028 9.65133 27.1868 9.642V11C27.0561 11.0187 26.9115 11.0373 26.7528 11.056C26.5941 11.0747 26.4541 11.084 26.3328 11.084ZM33.7426 11.168C33.0053 11.168 32.3193 11.0327 31.6846 10.762C31.0593 10.4913 30.5133 10.118 30.0466 9.642C29.5893 9.15667 29.23 8.58733 28.9686 7.934C28.7073 7.28067 28.5766 6.562 28.5766 5.778C28.5766 5.00333 28.7026 4.28933 28.9546 3.636C29.216 2.97333 29.58 2.404 30.0466 1.928C30.5133 1.44267 31.0593 1.06933 31.6846 0.807999C32.31 0.537333 32.996 0.402 33.7426 0.402C34.48 0.402 35.138 0.528 35.7166 0.78C36.3046 1.032 36.7993 1.36333 37.2006 1.774C37.602 2.17533 37.8913 2.614 38.0686 3.09L36.5846 3.79C36.3606 3.23 36.0013 2.77733 35.5066 2.432C35.0213 2.07733 34.4333 1.9 33.7426 1.9C33.052 1.9 32.4406 2.06333 31.9086 2.39C31.3766 2.71667 30.9613 3.16933 30.6626 3.748C30.3733 4.32667 30.2286 5.00333 30.2286 5.778C30.2286 6.55267 30.3733 7.234 30.6626 7.822C30.9613 8.40067 31.3766 8.85333 31.9086 9.18C32.4406 9.49733 33.052 9.656 33.7426 9.656C34.4333 9.656 35.0213 9.48333 35.5066 9.138C36.0013 8.79267 36.3606 8.34 36.5846 7.78L38.0686 8.48C37.8913 8.94667 37.602 9.38533 37.2006 9.796C36.7993 10.2067 36.3046 10.538 35.7166 10.79C35.138 11.042 34.48 11.168 33.7426 11.168ZM43.1307 11.168C42.4027 11.168 41.7354 10.9953 41.1287 10.65C40.5314 10.3047 40.0554 9.83333 39.7007 9.236C39.3461 8.63867 39.1687 7.962 39.1687 7.206C39.1687 6.44067 39.3461 5.764 39.7007 5.176C40.0554 4.57867 40.5314 4.112 41.1287 3.776C41.7261 3.43067 42.3934 3.258 43.1307 3.258C43.8774 3.258 44.5447 3.43067 45.1327 3.776C45.7301 4.112 46.2014 4.57867 46.5467 5.176C46.9014 5.764 47.0787 6.44067 47.0787 7.206C47.0787 7.97133 46.9014 8.65267 46.5467 9.25C46.1921 9.84733 45.7161 10.3187 45.1187 10.664C44.5214 11 43.8587 11.168 43.1307 11.168ZM43.1307 9.698C43.5787 9.698 43.9754 9.59067 44.3207 9.376C44.6661 9.16133 44.9367 8.86733 45.1327 8.494C45.3381 8.11133 45.4407 7.682 45.4407 7.206C45.4407 6.73 45.3381 6.30533 45.1327 5.932C44.9367 5.55867 44.6661 5.26467 44.3207 5.05C43.9754 4.83533 43.5787 4.728 43.1307 4.728C42.6921 4.728 42.2954 4.83533 41.9407 5.05C41.5954 5.26467 41.3201 5.55867 41.1147 5.932C40.9187 6.30533 40.8207 6.73 40.8207 7.206C40.8207 7.682 40.9187 8.11133 41.1147 8.494C41.3201 8.86733 41.5954 9.16133 41.9407 9.376C42.2954 9.59067 42.6921 9.698 43.1307 9.698ZM49.3232 11V9.18H50.9332V11H49.3232Z" fill="url(#paint0_linear_127_532)"/>
<defs>
<linearGradient id="paint0_linear_127_532" x1="-2.5" y1="1.43612e-06" x2="49" y2="11" gradientUnits="userSpaceOnUse">
<stop stop-color="#0EA5E9"/>
<stop offset="0.46" stop-color="#7CC8EA"/>
<stop offset="1" stop-color="#0EA5E9"/>
</linearGradient>
</defs>
</svg>
