<svg width="82" height="89" viewBox="0 0 82 89" fill="none" xmlns="http://www.w3.org/2000/svg">
<ellipse cx="41" cy="48.529" rx="33.5" ry="32.529" fill="#08EFE8"/>
<path fill-rule="evenodd" clip-rule="evenodd" d="M22.9059 56.6469C17.5499 49.8303 18.8672 39.4891 24.373 32.8062C28.7331 27.5138 34.4643 24.4285 41.7446 25.0883C44.6102 25.3479 46.9928 26.6028 49.4142 27.8782L49.6368 27.9953C49.9391 28.1544 50.2416 28.3133 50.5441 28.4722L50.5459 28.4732C52.6462 29.5763 54.7473 30.6799 56.806 31.8567C60.3222 33.8667 61.722 37.043 61.4717 40.977C61.3661 42.6369 61.18 44.2918 60.9939 45.9467C60.9103 46.6903 60.8267 47.434 60.7504 48.1781C60.6807 48.8578 60.4935 49.4416 59.6287 49.3119C58.8637 49.1972 58.9426 48.6897 59.0169 48.2115C59.0316 48.1169 59.0461 48.0235 59.0539 47.9344C59.1264 47.104 59.2179 46.2743 59.3093 45.4446C59.4867 43.8357 59.664 42.2272 59.7031 40.615C59.8266 35.5211 57.5241 33.5312 52.4431 34.1322C43.6756 35.1694 35.5536 42.7202 33.9293 51.3821C33.2556 54.9748 34.2125 58.2113 36.4902 60.9815C37.8025 62.5774 39.2525 64.0615 40.7011 65.5442C41.104 65.9566 41.5068 66.3689 41.9065 66.7835C43.4132 68.3461 44.7245 70.0149 45.1474 72.207C45.2235 72.6013 45.2302 73.009 45.2369 73.4167V73.4167C45.2399 73.604 45.243 73.7912 45.2528 73.9771C44.7465 74.1075 42.9793 73.4919 42.5825 73.1041C40.5805 71.1476 38.1385 69.9286 35.6961 68.7094C34.5971 68.1608 33.498 67.6122 32.4389 66.9963C30.623 65.9403 28.891 64.7385 27.1604 63.5375L27.1603 63.5374C26.6595 63.1899 26.1589 62.8425 25.6563 62.4987C25.4151 62.3336 25.2354 62.0785 25.0558 61.8234C24.9728 61.7054 24.8897 61.5875 24.8006 61.4784L24.9904 61.1259L28.0468 62.2125L28.2945 61.8831C28.2092 61.7944 28.1247 61.7048 28.0403 61.6153C27.8574 61.4212 27.6745 61.2271 27.4824 61.0426C26.9759 60.5561 26.4688 60.0701 25.9594 59.5819L25.9574 59.58C24.9537 58.618 23.941 57.6474 22.9059 56.6469ZM55.7691 52.7961C54.0762 56.2887 51.6523 58.899 47.8011 59.6459C44.2981 60.3252 41.1736 59.3333 38.6411 56.7588C37.0403 55.1315 36.944 53.1613 37.601 51.114C38.1871 49.2877 39.7616 48.8186 41.4202 48.5271C41.8023 48.46 42.1891 48.4129 42.5758 48.3803C44.4784 48.2199 45.9488 47.3547 47.0457 45.7804C47.4836 45.1519 47.9991 44.5337 48.6034 44.0739C49.8774 43.1048 51.1409 43.4186 51.8872 44.8278C52.6999 46.3623 53.7088 47.584 55.5619 47.9243C56.5216 48.1005 56.6482 49.0328 56.5439 49.7977C56.4506 50.4824 56.2505 51.1525 56.0417 51.8514L56.0417 51.8514L56.0416 51.8519C55.9496 52.1598 55.856 52.4733 55.7691 52.7961ZM48.9387 65.6032C48.6363 65.9233 48.3315 66.2462 48.0212 66.5703C46.3563 68.469 45.9403 70.5688 46.4754 73.0076C46.606 73.3979 46.7167 73.5989 46.9388 73.968C47.7857 73.2539 48.0963 73.1516 48.5677 72.9964C48.791 72.9228 49.0504 72.8374 49.42 72.6695C49.4437 72.3519 49.48 72.0333 49.5163 71.7147C49.5969 71.0077 49.6775 70.3007 49.6199 69.6052C49.4698 67.7912 50.1947 66.4957 51.5284 65.3541C54.6276 62.7015 57.1835 59.6024 58.9901 55.9165C59.0254 55.8444 59.0635 55.7728 59.1013 55.7017C59.3583 55.2184 59.6008 54.7623 58.8735 54.3525C58.0577 53.8928 57.7854 54.4692 57.5244 55.0218C57.5154 55.041 57.5063 55.0601 57.4973 55.0792C56.0959 58.0322 54.1336 60.5526 51.7376 62.7686C50.7722 63.6615 49.8674 64.6197 48.9387 65.6032Z" fill="#012423"/>
<path d="M46.0809 43.8961C44.7695 44.1526 43.8349 44.8799 43.2924 46.0832C43.1282 46.4472 43.0548 46.8524 42.9609 47.1679C42.6759 45.3051 41.5462 44.1812 39.6357 43.8504C41.5154 43.5199 42.6402 42.4241 42.9726 40.5112C43.3039 42.3894 44.4005 43.5132 46.2924 43.8668C46.2272 43.8756 46.162 43.8843 46.0809 43.8961Z" fill="#012423"/>
<mask id="path-4-inside-1_3130_1957" fill="white">
<path fill-rule="evenodd" clip-rule="evenodd" d="M31.738 8.92381C13.8338 13.1125 0.5 29.179 0.5 48.3599C0.5 70.7274 18.6325 88.8599 41 88.8599C63.3675 88.8599 81.5 70.7274 81.5 48.3599C81.5 29.0607 68.0011 12.9144 49.9302 8.84766L40.796 17.9819L31.738 8.92381Z"/>
</mask>
<path d="M31.738 8.92381L33.1522 7.5096L32.3655 6.72298L31.2824 6.9764L31.738 8.92381ZM49.9302 8.84766L50.3693 6.89645L49.2948 6.65464L48.516 7.43344L49.9302 8.84766ZM40.796 17.9819L39.3818 19.3961L40.796 20.8103L42.2102 19.3961L40.796 17.9819ZM2.5 48.3599C2.5 30.1288 15.1737 14.853 32.1936 10.8712L31.2824 6.9764C12.494 11.372 -1.5 28.2292 -1.5 48.3599H2.5ZM41 86.8599C19.737 86.8599 2.5 69.6228 2.5 48.3599H-1.5C-1.5 71.832 17.5279 90.8599 41 90.8599V86.8599ZM79.5 48.3599C79.5 69.6228 62.263 86.8599 41 86.8599V90.8599C64.4721 90.8599 83.5 71.832 83.5 48.3599H79.5ZM49.4911 10.7989C66.6693 14.6647 79.5 30.0163 79.5 48.3599H83.5C83.5 28.1052 69.333 11.1641 50.3693 6.89645L49.4911 10.7989ZM48.516 7.43344L39.3818 16.5676L42.2102 19.3961L51.3444 10.2619L48.516 7.43344ZM42.2102 16.5676L33.1522 7.5096L30.3237 10.338L39.3818 19.3961L42.2102 16.5676Z" fill="#E5A731" mask="url(#path-4-inside-1_3130_1957)"/>
<path d="M35.4849 6.5L40.7988 1.18611L46.1127 6.5L40.7988 11.8139L35.4849 6.5Z" fill="url(#paint0_diamond_3130_1957)" stroke="#E5A731" stroke-width="1.67742"/>
<defs>
<radialGradient id="paint0_diamond_3130_1957" cx="0" cy="0" r="1" gradientUnits="userSpaceOnUse" gradientTransform="translate(40.7988 6.5) rotate(90) scale(6.5)">
<stop offset="0.35" stop-color="#08EFE8"/>
<stop offset="0.3501" stop-color="#058985" stop-opacity="0"/>
</radialGradient>
</defs>
</svg>
