<svg xmlns="http://www.w3.org/2000/svg" xmlns:xlink="http://www.w3.org/1999/xlink" version="1.1" id="Layer_1" x="0px" y="0px" viewBox="0 0 495.1 331.4" style="enable-background:new 0 0 495.1 331.4;" xml:space="preserve"><script xmlns="" id="argent-x-extension" data-extension-id="dlcobpjiigpikoobohmabehhmhfoodbb"/>
<style type="text/css">
    .bg{fill:#FFFFFF;}
    .st0{fill:#000000;}
  </style>
    <circle class="bg" cx="297.55" cy="165.7" r="1265.7"/>
<g>
	<path d="M0,165.7c0-30.5,24.7-55.2,55.2-55.2s55.2-24.7,55.2-55.2S135.2,0,165.7,0c30.5,0,55.2,24.7,55.2,55.2   s-24.7,55.2-55.2,55.2s-55.2,24.7-55.2,55.2s24.7,55.2,55.2,55.2s55.2,24.7,55.2,55.2s-24.7,55.2-55.2,55.2s-55.2-24.7-55.2-55.2   s-24.7-55.2-55.2-55.2S0,196.2,0,165.7"/>
	<path d="M495.1,165.7c0,30.5-24.7,55.2-55.2,55.2s-55.2,24.7-55.2,55.2s-24.7,55.2-55.2,55.2s-55.2-24.7-55.2-55.2   s24.7-55.2,55.2-55.2s55.2-24.7,55.2-55.2s-24.7-55.2-55.2-55.2s-55.2-24.7-55.2-55.2S298.9,0,329.4,0s55.2,24.7,55.2,55.2   s24.7,55.2,55.2,55.2C470.4,110.5,495.1,135.2,495.1,165.7"/>
	<path d="M301.8,165.7c0,29.6-24,53.7-53.7,53.7s-53.7-24-53.7-53.7c0-29.6,24-53.7,53.7-53.7C277.7,112,301.8,136,301.8,165.7"/>
</g>
</svg>