<svg width="22" height="15" viewBox="0 0 22 15" fill="none" xmlns="http://www.w3.org/2000/svg">
<path d="M21.875 1.25V7.25C21.875 7.54837 21.7564 7.83452 21.5455 8.04549C21.3345 8.25647 21.0483 8.375 20.75 8.375C20.4516 8.375 20.1654 8.25647 19.9545 8.04549C19.7435 7.83452 19.625 7.54837 19.625 7.25V3.96875L12.5459 11.0487C12.4414 11.1536 12.3172 11.2368 12.1804 11.2936C12.0437 11.3504 11.8971 11.3796 11.749 11.3796C11.601 11.3796 11.4543 11.3504 11.3176 11.2936C11.1809 11.2368 11.0567 11.1536 10.9521 11.0487L7.99996 8.09375L2.0459 14.0459C1.83455 14.2573 1.54791 14.376 1.24902 14.376C0.950136 14.376 0.663491 14.2573 0.452147 14.0459C0.240802 13.8346 0.12207 13.5479 0.12207 13.2491C0.12207 12.9502 0.240802 12.6635 0.452147 12.4522L7.20215 5.70219C7.30666 5.59731 7.43085 5.51409 7.5676 5.45731C7.70435 5.40053 7.85096 5.3713 7.99902 5.3713C8.14709 5.3713 8.2937 5.40053 8.43044 5.45731C8.56719 5.51409 8.69138 5.59731 8.7959 5.70219L11.75 8.65625L18.0312 2.375H14.75C14.4516 2.375 14.1654 2.25647 13.9545 2.0455C13.7435 1.83452 13.625 1.54837 13.625 1.25C13.625 0.951631 13.7435 0.665483 13.9545 0.454505C14.1654 0.243526 14.4516 0.125 14.75 0.125H20.75C21.0483 0.125 21.3345 0.243526 21.5455 0.454505C21.7564 0.665483 21.875 0.951631 21.875 1.25Z" fill="#DCF808"/>
</svg>
