<svg width="55" height="56" viewBox="0 0 55 56" fill="none" xmlns="http://www.w3.org/2000/svg">
<g id="Group 17">
<g id="Group 15">
<g id="Group 14">
<path id="Subtract" fill-rule="evenodd" clip-rule="evenodd" d="M41.5523 43.4507C39.3252 44.7679 36.8769 45.1036 34.4224 45.2991C29.057 45.7265 23.6868 45.7644 18.3416 45.0254C17.1524 44.861 15.9694 44.5297 14.8326 44.1343C12.1239 43.192 11.0178 41.1225 11.0126 38.3647C11.0069 35.3217 11.002 32.2785 11.025 29.2356C11.0463 26.4381 12.2667 24.6963 14.895 23.699C17.2897 22.7904 19.8115 22.5661 22.3376 22.4234C26.4082 22.1934 30.4811 22.1982 34.5439 22.5599C36.5072 22.7348 38.4519 23.0426 40.3122 23.7734C42.6661 24.698 43.887 26.4331 43.9415 28.9101C44.0143 32.22 44.0152 35.5335 43.9524 38.8437C43.917 40.7118 43.2788 42.3616 41.5523 43.4507ZM31.8145 28.8262C31.8145 27.5992 32.8091 26.6045 34.0361 26.6045C35.2631 26.6045 36.2578 27.5992 36.2578 28.8262V38.9824C36.2578 40.2094 35.2631 41.2041 34.0361 41.2041C32.8091 41.2041 31.8145 40.2094 31.8145 38.9824V28.8262ZM27.5713 29.7783C26.3443 29.7783 25.3496 30.773 25.3496 32V38.9824C25.3496 40.2094 26.3443 41.2041 27.5713 41.2041C28.7983 41.2041 29.793 40.2094 29.793 38.9824V32C29.793 30.773 28.7983 29.7783 27.5713 29.7783ZM21.1045 31.6826C19.8775 31.6826 18.8828 32.6773 18.8828 33.9043V38.9824C18.8828 40.2094 19.8775 41.2041 21.1045 41.2041C22.3315 41.2041 23.3262 40.2094 23.3262 38.9824V33.9043C23.3262 32.6773 22.3315 31.6826 21.1045 31.6826Z" fill="#52525B"/>
</g>
<path id="Union" d="M29.2152 54.1843L28.0305 54.1873C27.8752 54.1877 27.7203 54.1874 27.5657 54.1866C27.411 54.1874 27.2561 54.1877 27.1008 54.1873L25.9162 54.1843V54.1591C25.281 54.1412 24.6466 54.1154 24.0133 54.0833L24.0132 54.0833C20.716 53.9158 17.3293 53.516 14.1004 52.139C9.80991 50.3092 7.21735 47.0373 6.59847 42.355C6.52091 41.7683 6.47076 41.1825 6.42253 40.6192L6.42142 40.6063L6.42136 40.6055C6.41123 40.4863 6.40101 40.3671 6.39056 40.2477L6.38604 40.1961V40.1442V28.4447L4.37385 27.5936L4.8365 26.4998L4.37385 27.5936C2.29952 26.7162 1.10637 24.5222 1.49734 22.3041L1.51906 22.1809C2.17793 18.4431 4.46103 15.1901 7.75229 13.2999C9.5498 12.2675 11.8092 12.5199 13.3346 13.9235L15.0461 15.4983C15.2632 15.4201 15.4824 15.3456 15.7036 15.2746C15.7036 15.2745 15.7037 15.2745 15.7038 15.2745L16.067 16.4052C16.7217 16.1948 17.3893 16.0237 18.06 15.8517L29.2152 54.1843ZM29.2152 54.1843V54.1591M29.2152 54.1843V54.1591M17.8178 14.6878C17.8003 14.6923 17.7827 14.6968 17.7652 14.7013C17.7651 14.7013 17.765 14.7013 17.765 14.7013L17.8178 14.6878ZM17.8178 14.6878C17.8199 14.6056 17.822 14.5218 17.8244 14.4356L17.8259 14.3798L17.8327 14.3242C17.946 13.3953 18.2938 12.6022 18.8737 11.9763C19.444 11.3608 20.1726 10.9779 20.9398 10.745L17.8178 14.6878ZM47.5577 40.1442L47.5265 40.505C47.4776 41.0769 47.4294 41.6398 47.3555 42.1994C46.7936 46.4503 44.4839 49.3752 40.5651 51.0465C37.531 52.3405 34.3123 52.7318 31.0579 52.8972L47.5577 40.1442ZM47.5577 40.1442V28.1518V40.1442ZM29.2152 54.1591C29.8503 54.1412 30.4847 54.1154 31.1181 54.0833L31.1181 54.0833C34.4154 53.9158 37.802 53.516 41.031 52.139C45.3214 50.3092 47.914 47.0373 48.5329 42.355C48.6108 41.7656 48.661 41.1772 48.7094 40.6114L48.7097 40.6073L48.7098 40.6061L48.7409 40.2464L48.7453 40.1954V40.1442V28.3888L50.6253 27.5936C52.6996 26.7162 53.8927 24.5222 53.5018 22.3041L53.48 22.181L52.3104 22.3871L53.48 22.1809C52.8212 18.4431 50.5381 15.1901 47.2468 13.2999C45.4493 12.2675 43.1899 12.5199 41.6645 13.9235L39.99 15.4643C39.8041 15.3984 39.6166 15.3352 39.4277 15.2745L29.2152 54.1591ZM37.3664 14.7013L37.3785 14.7044C38.0398 14.8739 38.7374 15.0527 39.4276 15.2745L37.3664 14.7013ZM37.3664 14.7013L37.3662 14.7013L37.3508 14.6973C37.3507 14.6973 37.3507 14.6973 37.3507 14.6973C37.3383 14.6941 37.3259 14.6909 37.3135 14.6878C37.3115 14.6056 37.3093 14.5218 37.307 14.4356L37.3054 14.3797L37.2987 14.3242C37.1853 13.3953 36.8375 12.6022 36.2576 11.9763C35.6874 11.3608 34.9587 10.9779 34.1915 10.745C33.414 10.509 32.622 10.3729 31.886 10.2691L37.3664 14.7013ZM30.3611 10.1087C30.3572 9.64414 30.3555 9.1954 30.3648 8.75144C31.9696 7.16821 32.0703 4.63313 30.4635 3.00622L30.4635 3.00617C29.6676 2.20047 28.6102 1.80442 27.5657 1.81248C26.5212 1.80442 25.4637 2.20047 24.6679 3.00617L24.6678 3.00622C23.061 4.63315 23.1618 7.16829 24.7665 8.75152C24.7758 9.19546 24.7742 9.64418 24.7702 10.1087C24.2706 10.1502 23.7583 10.1968 23.2454 10.2691L30.3611 10.1087ZM30.3611 10.1087C30.8606 10.1502 31.373 10.1968 31.8859 10.2691L30.3611 10.1087ZM24.7589 8.46772L24.7589 8.46814L24.7589 8.46772ZM23.2454 10.2691C22.5093 10.3729 21.7174 10.509 20.9398 10.745L23.2454 10.2691Z" stroke="#52525B" stroke-width="2.37529"/>
</g>
</g>
</svg>
