<svg width="16" height="16" viewBox="0 0 16 16" fill="none" xmlns="http://www.w3.org/2000/svg">
<path d="M4.88974 2.13332V2.57665H5.33307H10.6664H11.1097V2.13332V1.59998C11.1097 1.5503 11.1501 1.50998 11.1997 1.50998C11.2494 1.50998 11.2897 1.5503 11.2897 1.59998V2.13332V2.57665H11.7331H13.3331C13.9719 2.57665 14.4897 3.09451 14.4897 3.73332V13.3333C14.4897 13.9721 13.9719 14.49 13.3331 14.49H2.66641C2.0276 14.49 1.50974 13.9721 1.50974 13.3333V3.73332C1.50974 3.0945 2.02759 2.57665 2.66641 2.57665H4.26641H4.70974V2.13332V1.59998C4.70974 1.55028 4.75004 1.50998 4.79974 1.50998C4.84944 1.50998 4.88974 1.55028 4.88974 1.59998V2.13332ZM11.1097 3.19998V2.75665H10.6664H5.33307H4.88974V3.19998V3.73332C4.88974 3.78302 4.84944 3.82332 4.79974 3.82332C4.75004 3.82332 4.70974 3.78302 4.70974 3.73332V3.19998V2.75665H4.26641H2.66641C2.12701 2.75665 1.68974 3.19392 1.68974 3.73332V5.33332V5.77665H2.13307H13.8664H14.3097V5.33332V3.73332C14.3097 3.1939 13.8724 2.75665 13.3331 2.75665H11.7331H11.2897V3.19998V3.73332C11.2897 3.783 11.2494 3.82332 11.1997 3.82332C11.1501 3.82332 11.1097 3.783 11.1097 3.73332V3.19998ZM2.13307 5.95665H1.68974V6.39998V13.3333C1.68974 13.8726 2.12699 14.31 2.66641 14.31H13.3331C13.8724 14.31 14.3097 13.8727 14.3097 13.3333V6.39998V5.95665H13.8664H2.13307ZM7.90974 7.99998C7.90974 7.95028 7.95004 7.90998 7.99974 7.90998C8.04944 7.90998 8.08974 7.95028 8.08974 7.99998C8.08974 8.04969 8.04944 8.08998 7.99974 8.08998C7.95004 8.08998 7.90974 8.04969 7.90974 7.99998ZM10.0431 7.99998C10.0431 7.95028 10.0834 7.90998 10.1331 7.90998C10.1828 7.90998 10.2231 7.95028 10.2231 7.99998C10.2231 8.04969 10.1828 8.08998 10.1331 8.08998C10.0834 8.08998 10.0431 8.04969 10.0431 7.99998ZM12.1764 7.99998C12.1764 7.9503 12.2167 7.90998 12.2664 7.90998C12.3161 7.90998 12.3564 7.9503 12.3564 7.99998C12.3564 8.04966 12.3161 8.08998 12.2664 8.08998C12.2167 8.08998 12.1764 8.04966 12.1764 7.99998ZM12.1764 10.1333C12.1764 10.0836 12.2167 10.0433 12.2664 10.0433C12.3161 10.0433 12.3564 10.0836 12.3564 10.1333C12.3564 10.183 12.3161 10.2233 12.2664 10.2233C12.2167 10.2233 12.1764 10.183 12.1764 10.1333ZM10.0431 10.1333C10.0431 10.0836 10.0834 10.0433 10.1331 10.0433C10.1828 10.0433 10.2231 10.0836 10.2231 10.1333C10.2231 10.183 10.1828 10.2233 10.1331 10.2233C10.0834 10.2233 10.0431 10.183 10.0431 10.1333ZM7.90974 10.1333C7.90974 10.0836 7.95004 10.0433 7.99974 10.0433C8.04944 10.0433 8.08974 10.0836 8.08974 10.1333C8.08974 10.183 8.04944 10.2233 7.99974 10.2233C7.95004 10.2233 7.90974 10.183 7.90974 10.1333ZM5.77641 10.1333C5.77641 10.0836 5.8167 10.0433 5.86641 10.0433C5.91611 10.0433 5.95641 10.0836 5.95641 10.1333C5.95641 10.183 5.91611 10.2233 5.86641 10.2233C5.8167 10.2233 5.77641 10.183 5.77641 10.1333ZM3.64307 10.1333C3.64307 10.0836 3.68337 10.0433 3.73307 10.0433C3.78278 10.0433 3.82307 10.0836 3.82307 10.1333C3.82307 10.183 3.78278 10.2233 3.73307 10.2233C3.68337 10.2233 3.64307 10.183 3.64307 10.1333ZM3.64307 12.2667C3.64307 12.217 3.68339 12.1767 3.73307 12.1767C3.78275 12.1767 3.82307 12.217 3.82307 12.2667C3.82307 12.3163 3.78275 12.3567 3.73307 12.3567C3.68339 12.3567 3.64307 12.3163 3.64307 12.2667ZM5.77641 12.2667C5.77641 12.217 5.81673 12.1767 5.86641 12.1767C5.91609 12.1767 5.95641 12.217 5.95641 12.2667C5.95641 12.3163 5.91609 12.3567 5.86641 12.3567C5.81673 12.3567 5.77641 12.3163 5.77641 12.2667ZM7.90974 12.2667C7.90974 12.217 7.95006 12.1767 7.99974 12.1767C8.04942 12.1767 8.08974 12.217 8.08974 12.2667C8.08974 12.3163 8.04942 12.3567 7.99974 12.3567C7.95006 12.3567 7.90974 12.3163 7.90974 12.2667ZM10.0431 12.2667C10.0431 12.217 10.0834 12.1767 10.1331 12.1767C10.1828 12.1767 10.2231 12.217 10.2231 12.2667C10.2231 12.3163 10.1828 12.3567 10.1331 12.3567C10.0834 12.3567 10.0431 12.3163 10.0431 12.2667Z" fill="#FAFAFA" stroke="#FAFAFA" stroke-width="0.886667"/>
</svg>
