<svg width="16" height="16" viewBox="0 0 16 16" fill="none" xmlns="http://www.w3.org/2000/svg">
<g id="Objects / globe">
<path id="Vector" fill-rule="evenodd" clip-rule="evenodd" d="M7.99996 1.91996C4.64207 1.91996 1.91996 4.64207 1.91996 7.99996C1.91996 11.3578 4.64207 14.0799 7.99996 14.0799C11.3579 14.0799 14.08 11.3578 14.08 7.99996C14.08 4.64207 11.3579 1.91996 7.99996 1.91996ZM0.959961 7.99996C0.959961 4.11187 4.11187 0.959961 7.99996 0.959961C11.888 0.959961 15.04 4.11187 15.04 7.99996C15.04 11.888 11.888 15.0399 7.99996 15.0399C4.11187 15.0399 0.959961 11.888 0.959961 7.99996Z" fill="#0EA5E9"/>
<path id="Vector_2" fill-rule="evenodd" clip-rule="evenodd" d="M14.3998 8.42658H1.59985V7.57324H14.3998V8.42658Z" fill="#0EA5E9"/>
<path id="Vector_3" fill-rule="evenodd" clip-rule="evenodd" d="M7.57326 14.3999V1.59987H8.42659V14.3999H7.57326ZM11.0667 7.99985C11.0667 5.68226 10.2332 3.3895 8.59931 1.87353L9.10715 1.32617C10.9223 3.01019 11.8134 5.51745 11.8134 7.99985C11.8134 10.4823 10.9223 12.9895 9.10715 14.6736L8.59931 14.1262C10.2332 12.6102 11.0667 10.3174 11.0667 7.99985ZM4.26636 7.99987C4.26636 5.52105 5.12841 3.0151 6.88821 1.3302L7.40458 1.86953C5.8221 3.38465 5.01302 5.67868 5.01302 7.99987C5.01303 10.3211 5.82212 12.6151 7.4046 14.1302L6.88822 14.6695C5.12843 12.9846 4.26637 10.4787 4.26636 7.99987Z" fill="#0EA5E9"/>
<path id="Vector_4" fill-rule="evenodd" clip-rule="evenodd" d="M8.00004 4.22168C10.314 4.22168 12.6671 4.64956 14.2621 5.54058C14.4421 5.64114 14.5065 5.86857 14.4059 6.04858C14.3055 6.22858 14.0779 6.293 13.898 6.19244C12.4581 5.38812 10.2486 4.96835 8.00004 4.96835C5.75146 4.96835 3.54197 5.38812 2.1021 6.19244C1.92209 6.293 1.69465 6.22858 1.5941 6.04858C1.49355 5.86857 1.55796 5.64114 1.73797 5.54058C3.33305 4.64956 5.68609 4.22168 8.00004 4.22168ZM8.00004 11.5731C10.314 11.5731 12.6671 11.1452 14.2621 10.2542C14.4421 10.1537 14.5065 9.92621 14.4059 9.74621C14.3055 9.5662 14.0779 9.5018 13.898 9.60234C12.4581 10.4067 10.2486 10.8265 8.00004 10.8265C5.75146 10.8265 3.54197 10.4067 2.1021 9.60235C1.92209 9.5018 1.69465 9.5662 1.5941 9.74621C1.49355 9.92621 1.55796 10.1537 1.73797 10.2542C3.33305 11.1452 5.68609 11.5731 8.00004 11.5731Z" fill="#0EA5E9"/>
</g>
</svg>
