<svg width="28" height="26" viewBox="0 0 28 26" fill="none" xmlns="http://www.w3.org/2000/svg">
<path d="M13.3503 1.12725C13.6389 0.626859 14.3611 0.62686 14.6497 1.12725L18.1113 7.12913C18.3593 7.55924 18.7784 7.86373 19.2641 7.96674L26.0419 9.40421C26.607 9.52406 26.8302 10.2109 26.4435 10.64L21.805 15.7868C21.4726 16.1557 21.3126 16.6483 21.3647 17.1421L22.092 24.0324C22.1527 24.6069 21.5684 25.0313 21.0408 24.7962L14.7125 21.9752C14.259 21.773 13.741 21.773 13.2875 21.9752L6.9592 24.7962C6.43159 25.0313 5.84734 24.6069 5.90798 24.0324L6.63532 17.1421C6.68745 16.6483 6.52737 16.1557 6.19497 15.7868L1.55652 10.64C1.1698 10.2109 1.39297 9.52406 1.95805 9.40421L8.73587 7.96674C9.22158 7.86373 9.64067 7.55924 9.88874 7.12913L13.3503 1.12725Z" stroke="#DCF808"/>
</svg>
