<svg width="16" height="17" viewBox="0 0 16 17" fill="none" xmlns="http://www.w3.org/2000/svg">
<g clip-path="url(#clip0_3501_1012)">
<path fill-rule="evenodd" clip-rule="evenodd" d="M8.71608 0.814595C8.62292 0.719043 8.51157 0.643105 8.38861 0.591256C8.26564 0.539407 8.13354 0.512695 8.00008 0.512695C7.86663 0.512695 7.73453 0.539407 7.61156 0.591256C7.48859 0.643105 7.37725 0.719043 7.28408 0.814595L6.64608 1.4696C6.52051 1.59862 6.36243 1.69134 6.18853 1.73799C6.01463 1.78463 5.83137 1.78346 5.65808 1.7346L4.77808 1.4866C4.64964 1.45045 4.51525 1.44038 4.38285 1.45697C4.25045 1.47356 4.12271 1.51648 4.00715 1.58321C3.8916 1.64993 3.79056 1.73911 3.71 1.84548C3.62945 1.95186 3.57099 2.07328 3.53808 2.20259L3.31208 3.08859C3.26778 3.26301 3.17722 3.42224 3.04997 3.54949C2.92273 3.67673 2.7635 3.76729 2.58908 3.81159L1.70308 4.03659C1.57377 4.0695 1.45235 4.12796 1.34597 4.20852C1.2396 4.28907 1.15042 4.39011 1.0837 4.50566C1.01697 4.62122 0.974048 4.74896 0.957456 4.88136C0.940864 5.01376 0.950937 5.14815 0.987083 5.2766L1.23508 6.1576C1.28394 6.33088 1.28512 6.51415 1.23847 6.68804C1.19183 6.86194 1.09911 7.02002 0.970083 7.1456L0.315083 7.7836C0.219532 7.87676 0.143594 7.9881 0.0917444 8.11107C0.0398952 8.23404 0.0131836 8.36614 0.0131836 8.4996C0.0131836 8.63305 0.0398952 8.76515 0.0917444 8.88812C0.143594 9.01109 0.219532 9.12243 0.315083 9.21559L0.970083 9.85459C1.09893 9.98008 1.19155 10.138 1.23819 10.3117C1.28482 10.4854 1.28375 10.6685 1.23508 10.8416L0.987083 11.7216C0.950937 11.85 0.940864 11.9844 0.957456 12.1168C0.974048 12.2492 1.01697 12.377 1.0837 12.4925C1.15042 12.6081 1.2396 12.7091 1.34597 12.7897C1.45235 12.8702 1.57377 12.9287 1.70308 12.9616L2.58908 13.1876C2.7635 13.2319 2.92273 13.3225 3.04997 13.4497C3.17722 13.577 3.26778 13.7362 3.31208 13.9106L3.53708 14.7966C3.56988 14.926 3.62826 15.0475 3.70877 15.154C3.78928 15.2605 3.8903 15.3498 4.00587 15.4166C4.12143 15.4834 4.24921 15.5264 4.38167 15.5431C4.51412 15.5598 4.64857 15.5497 4.77708 15.5136L5.65808 15.2656C5.83128 15.2166 6.01449 15.2153 6.18838 15.2617C6.36228 15.3082 6.5204 15.4007 6.64608 15.5296L7.28408 16.1846C7.37725 16.2801 7.48859 16.3561 7.61156 16.4079C7.73453 16.4598 7.86663 16.4865 8.00008 16.4865C8.13354 16.4865 8.26564 16.4598 8.38861 16.4079C8.51157 16.3561 8.62292 16.2801 8.71608 16.1846L9.35508 15.5296C9.48067 15.4009 9.63863 15.3085 9.81232 15.262C9.98602 15.2156 10.169 15.2168 10.3421 15.2656L11.2221 15.5136C11.3506 15.5497 11.485 15.5598 11.6175 15.5431C11.75 15.5264 11.8777 15.4834 11.9933 15.4166C12.1089 15.3498 12.2099 15.2605 12.2904 15.154C12.3709 15.0475 12.4293 14.926 12.4621 14.7966L12.6881 13.9106C12.7324 13.7362 12.8229 13.577 12.9502 13.4497C13.0774 13.3225 13.2367 13.2319 13.4111 13.1876L14.2971 12.9626C14.4265 12.9298 14.548 12.8714 14.6545 12.7909C14.761 12.7104 14.8503 12.6094 14.9171 12.4938C14.9839 12.3782 15.0269 12.2505 15.0436 12.118C15.0602 11.9856 15.0502 11.8511 15.0141 11.7226L14.7661 10.8426C14.7171 10.6694 14.7158 10.4862 14.7622 10.3123C14.8087 10.1384 14.9012 9.98028 15.0301 9.85459L15.6851 9.21559C15.7806 9.12243 15.8566 9.01109 15.9084 8.88812C15.9603 8.76515 15.987 8.63305 15.987 8.4996C15.987 8.36614 15.9603 8.23404 15.9084 8.11107C15.8566 7.9881 15.7806 7.87676 15.6851 7.7836L15.0301 7.1456C14.9012 7.01991 14.8087 6.86179 14.7622 6.6879C14.7158 6.514 14.7171 6.33079 14.7661 6.1576L15.0141 5.2776C15.0502 5.14908 15.0602 5.01463 15.0436 4.88218C15.0269 4.74972 14.9839 4.62195 14.9171 4.50638C14.8503 4.39081 14.761 4.28979 14.6545 4.20928C14.548 4.12877 14.4265 4.07039 14.2971 4.0376L13.4111 3.81159C13.2367 3.76729 13.0774 3.67673 12.9502 3.54949C12.8229 3.42224 12.7324 3.26301 12.6881 3.08859L12.4631 2.20259C12.4302 2.07328 12.3717 1.95186 12.2912 1.84548C12.2106 1.73911 12.1096 1.64993 11.994 1.58321C11.8785 1.51648 11.7507 1.47356 11.6183 1.45697C11.4859 1.44038 11.3515 1.45045 11.2231 1.4866L10.3431 1.7346C10.1697 1.78365 9.98619 1.78492 9.81209 1.73827C9.638 1.69162 9.47975 1.59879 9.35408 1.4696L8.71608 0.814595ZM11.7731 6.7896C11.9163 6.65142 11.9988 6.46201 12.0023 6.26303C12.0059 6.06405 11.9303 5.87181 11.7921 5.7286C11.6539 5.58538 11.4645 5.50292 11.2655 5.49935C11.0665 5.49579 10.8743 5.57142 10.7311 5.7096L6.59708 9.70159L5.28008 8.3866C5.13912 8.24603 4.94809 8.16722 4.74902 8.1675C4.54995 8.16778 4.35915 8.24713 4.21858 8.3881C4.07802 8.52906 3.99921 8.72009 3.99949 8.91916C3.99977 9.11823 4.07912 9.30903 4.22008 9.44959L6.05908 11.2836C6.19797 11.4224 6.38572 11.5011 6.58204 11.503C6.77836 11.5049 6.96758 11.4297 7.10908 11.2936L11.7731 6.7896Z" fill="#08EFE8"/>
</g>
<defs>
<clipPath id="clip0_3501_1012">
<rect width="16" height="16" fill="white" transform="translate(0 0.5)"/>
</clipPath>
</defs>
</svg>
