<svg width="28" height="26" viewBox="0 0 28 26" fill="none" xmlns="http://www.w3.org/2000/svg">
<path d="M12.9172 0.877447C13.3982 0.0434611 14.6018 0.0434612 15.0828 0.877447L18.5444 6.87933C18.7216 7.18655 19.0209 7.40404 19.3679 7.47762L26.1457 8.91509C27.0875 9.11483 27.4594 10.2596 26.8149 10.9747L22.1765 16.1216C21.939 16.385 21.8247 16.7369 21.8619 17.0896L22.5893 23.9799C22.6903 24.9373 21.7166 25.6448 20.8372 25.2528L14.5089 22.4319C14.185 22.2875 13.815 22.2875 13.4911 22.4319L7.16277 25.2528C6.28343 25.6448 5.30967 24.9373 5.41074 23.9799L6.13809 17.0896C6.17532 16.7369 6.06098 16.385 5.82355 16.1216L1.1851 10.9747C0.540572 10.2596 0.912513 9.11483 1.85432 8.91509L8.63213 7.47762C8.97907 7.40404 9.27842 7.18655 9.45561 6.87933L12.9172 0.877447Z" fill="#DCF808"/>
</svg>
