<svg width="62" height="14" viewBox="0 0 62 14" fill="none" xmlns="http://www.w3.org/2000/svg">
<path d="M0.661962 13V0.483999H5.21476C6.05476 0.483999 6.79396 0.6408 7.43236 0.9544C8.08196 1.2568 8.58596 1.7048 8.94436 2.2984C9.30276 2.8808 9.48196 3.5808 9.48196 4.3984C9.48196 5.2048 9.29716 5.8992 8.92756 6.4816C8.56916 7.064 8.07076 7.512 7.43236 7.8256C6.79396 8.1392 6.05476 8.296 5.21476 8.296H2.64436V13H0.661962ZM2.64436 6.532H5.26516C5.71316 6.532 6.10516 6.4424 6.44116 6.2632C6.77716 6.084 7.04036 5.8376 7.23076 5.524C7.42116 5.1992 7.51636 4.8184 7.51636 4.3816C7.51636 3.9448 7.42116 3.5696 7.23076 3.256C7.04036 2.9312 6.77716 2.6848 6.44116 2.5168C6.10516 2.3376 5.71316 2.248 5.26516 2.248H2.64436V6.532ZM15.3948 13.2016C14.5212 13.2016 13.7204 12.9944 12.9924 12.58C12.2756 12.1656 11.7044 11.6 11.2788 10.8832C10.8532 10.1664 10.6404 9.3544 10.6404 8.4472C10.6404 7.5288 10.8532 6.7168 11.2788 6.0112C11.7044 5.2944 12.2756 4.7344 12.9924 4.3312C13.7092 3.9168 14.51 3.7096 15.3948 3.7096C16.2908 3.7096 17.0916 3.9168 17.7972 4.3312C18.514 4.7344 19.0796 5.2944 19.494 6.0112C19.9196 6.7168 20.1324 7.5288 20.1324 8.4472C20.1324 9.3656 19.9196 10.1832 19.494 10.9C19.0684 11.6168 18.4972 12.1824 17.7804 12.5968C17.0636 13 16.2684 13.2016 15.3948 13.2016ZM15.3948 11.4376C15.9324 11.4376 16.4084 11.3088 16.8228 11.0512C17.2372 10.7936 17.562 10.4408 17.7972 9.9928C18.0436 9.5336 18.1668 9.0184 18.1668 8.4472C18.1668 7.876 18.0436 7.3664 17.7972 6.9184C17.562 6.4704 17.2372 6.1176 16.8228 5.86C16.4084 5.6024 15.9324 5.4736 15.3948 5.4736C14.8684 5.4736 14.3924 5.6024 13.9668 5.86C13.5524 6.1176 13.222 6.4704 12.9756 6.9184C12.7404 7.3664 12.6228 7.876 12.6228 8.4472C12.6228 9.0184 12.7404 9.5336 12.9756 9.9928C13.222 10.4408 13.5524 10.7936 13.9668 11.0512C14.3924 11.3088 14.8684 11.4376 15.3948 11.4376ZM21.9858 13V3.9112H23.8002V5.7424L23.6322 5.4736C23.8338 4.88 24.1586 4.4544 24.6066 4.1968C25.0546 3.928 25.5922 3.7936 26.2194 3.7936H26.7738V5.524H25.9842C25.357 5.524 24.8474 5.72 24.4554 6.112C24.0746 6.4928 23.8842 7.0416 23.8842 7.7584V13H21.9858ZM32.1677 13.1008C31.2157 13.1008 30.4765 12.832 29.9501 12.2944C29.4237 11.7568 29.1605 11.0008 29.1605 10.0264V5.6248H27.5645V3.9112H27.8165C28.2421 3.9112 28.5725 3.788 28.8077 3.5416C29.0429 3.2952 29.1605 2.9592 29.1605 2.5336V1.828H31.0589V3.9112H33.1253V5.6248H31.0589V9.9424C31.0589 10.256 31.1093 10.5248 31.2101 10.7488C31.3109 10.9616 31.4733 11.1296 31.6973 11.2528C31.9213 11.3648 32.2125 11.4208 32.5709 11.4208C32.6605 11.4208 32.7613 11.4152 32.8733 11.404C32.9853 11.3928 33.0917 11.3816 33.1925 11.3704V13C33.0357 13.0224 32.8621 13.0448 32.6717 13.0672C32.4813 13.0896 32.3133 13.1008 32.1677 13.1008ZM41.0595 13.2016C40.1747 13.2016 39.3515 13.0392 38.5899 12.7144C37.8395 12.3896 37.1843 11.9416 36.6243 11.3704C36.0755 10.788 35.6443 10.1048 35.3307 9.3208C35.0171 8.5368 34.8603 7.6744 34.8603 6.7336C34.8603 5.804 35.0115 4.9472 35.3139 4.1632C35.6275 3.368 36.0643 2.6848 36.6243 2.1136C37.1843 1.5312 37.8395 1.0832 38.5899 0.7696C39.3403 0.4448 40.1635 0.2824 41.0595 0.2824C41.9443 0.2824 42.7339 0.4336 43.4283 0.736C44.1339 1.0384 44.7275 1.436 45.2091 1.9288C45.6907 2.4104 46.0379 2.9368 46.2507 3.508L44.4699 4.348C44.2011 3.676 43.7699 3.1328 43.1763 2.7184C42.5939 2.2928 41.8883 2.08 41.0595 2.08C40.2307 2.08 39.4971 2.276 38.8587 2.668C38.2203 3.06 37.7219 3.6032 37.3635 4.2976C37.0163 4.992 36.8427 5.804 36.8427 6.7336C36.8427 7.6632 37.0163 8.4808 37.3635 9.1864C37.7219 9.8808 38.2203 10.424 38.8587 10.816C39.4971 11.1968 40.2307 11.3872 41.0595 11.3872C41.8883 11.3872 42.5939 11.18 43.1763 10.7656C43.7699 10.3512 44.2011 9.808 44.4699 9.136L46.2507 9.976C46.0379 10.536 45.6907 11.0624 45.2091 11.5552C44.7275 12.048 44.1339 12.4456 43.4283 12.748C42.7339 13.0504 41.9443 13.2016 41.0595 13.2016ZM52.3252 13.2016C51.4516 13.2016 50.6508 12.9944 49.9228 12.58C49.206 12.1656 48.6348 11.6 48.2092 10.8832C47.7836 10.1664 47.5708 9.3544 47.5708 8.4472C47.5708 7.5288 47.7836 6.7168 48.2092 6.0112C48.6348 5.2944 49.206 4.7344 49.9228 4.3312C50.6396 3.9168 51.4404 3.7096 52.3252 3.7096C53.2212 3.7096 54.022 3.9168 54.7276 4.3312C55.4444 4.7344 56.01 5.2944 56.4244 6.0112C56.85 6.7168 57.0628 7.5288 57.0628 8.4472C57.0628 9.3656 56.85 10.1832 56.4244 10.9C55.9988 11.6168 55.4276 12.1824 54.7108 12.5968C53.994 13 53.1988 13.2016 52.3252 13.2016ZM52.3252 11.4376C52.8628 11.4376 53.3388 11.3088 53.7532 11.0512C54.1676 10.7936 54.4924 10.4408 54.7276 9.9928C54.974 9.5336 55.0972 9.0184 55.0972 8.4472C55.0972 7.876 54.974 7.3664 54.7276 6.9184C54.4924 6.4704 54.1676 6.1176 53.7532 5.86C53.3388 5.6024 52.8628 5.4736 52.3252 5.4736C51.7988 5.4736 51.3228 5.6024 50.8972 5.86C50.4828 6.1176 50.1524 6.4704 49.906 6.9184C49.6708 7.3664 49.5532 7.876 49.5532 8.4472C49.5532 9.0184 49.6708 9.5336 49.906 9.9928C50.1524 10.4408 50.4828 10.7936 50.8972 11.0512C51.3228 11.3088 51.7988 11.4376 52.3252 11.4376ZM59.7562 13V10.816H61.6882V13H59.7562Z" fill="#0167FF"/>
</svg>
