<svg width="24" height="24" viewBox="0 0 24 24" fill="none" xmlns="http://www.w3.org/2000/svg">
<path d="M1.93994 12C1.93994 6.44406 6.44397 1.94003 11.9999 1.94003C17.5559 1.94003 22.0599 6.44405 22.0599 12C22.0599 17.556 17.5559 22.06 11.9999 22.06C6.44396 22.06 1.93994 17.556 1.93994 12ZM11.9999 2.38003C6.68698 2.38003 2.37993 6.68707 2.37993 12C2.37993 17.3129 6.68698 21.62 11.9999 21.62C17.3128 21.62 21.6199 17.3129 21.6199 12C21.6199 6.68707 17.3128 2.38003 11.9999 2.38003ZM5.41997 12C5.41997 8.36601 8.36593 5.42003 12 5.42003C15.634 5.42003 18.5799 8.366 18.5799 12C18.5799 15.634 15.634 18.58 12 18.58C8.36593 18.58 5.41997 15.634 5.41997 12ZM12 5.78003C8.56475 5.78003 5.77997 8.56483 5.77997 12C5.77997 15.4352 8.56477 18.22 12 18.22C15.4352 18.22 18.2199 15.4352 18.2199 12C18.2199 8.56483 15.4352 5.78003 12 5.78003ZM8.89997 12C8.89997 10.288 10.2879 8.90003 12 8.90003C13.712 8.90003 15.1 10.2879 15.1 12C15.1 13.7121 13.712 15.1 12 15.1C10.2879 15.1 8.89997 13.7121 8.89997 12ZM12 9.18003C10.4425 9.18003 9.17997 10.4426 9.17997 12C9.17997 13.5575 10.4425 14.82 12 14.82C13.5574 14.82 14.82 13.5575 14.82 12C14.82 10.4426 13.5574 9.18003 12 9.18003Z" fill="#FAFAFA" stroke="#71717A"/>
</svg>
